<svg width="44" height="44" viewBox="0 0 44 44" fill="none" xmlns="http://www.w3.org/2000/svg">
<rect width="44" height="44" rx="22" fill="#E5D8C0"/>
<path d="M23.4511 34.807C22.4979 34.807 22.7021 34.6783 22.4638 34.6783C22.3277 34.6783 21.5787 34.7105 21 35C20.2511 34.7748 19.5021 34.4531 18.7532 34.2922C16.3702 33.7775 14.4638 31.7507 13.6809 29.5308C13.2383 28.63 13.4766 27.7292 13.2383 26.8284C13.1021 26.3458 13 25.8954 13 25.445C13 25.1555 13.0681 24.8338 13.0681 24.5442C13.0681 24.1582 13 23.7399 13 23.3217C13 22.8391 13.1702 22.3887 13.2383 21.9062C13.3404 21.1019 13.3404 20.3298 13.3745 19.5255C13.4426 18.5925 14.2255 17.8847 14.4638 16.9839C14.8723 15.3753 15.1787 13.9598 17.6298 12.6729C19.6043 11.8365 21.7489 11.2252 23.9957 11C25.2553 11 26.6511 11.1287 27.6383 11.5791C28.2851 12.0617 28.8979 13.1233 28.8979 13.6702C28.8979 14.378 28.5574 14.9893 28.5574 15.8901C27.9787 16.0509 27.8426 16.1796 27.6723 16.7909C27.1957 16.7587 26.6851 16.6622 26.1745 16.6622C25.9702 16.6622 25.766 16.6622 25.5617 16.7265C25.0511 16.437 24.4723 16.1475 23.8596 16.1475C22.3617 16.4048 20.1489 16.7587 19.2298 17.9169C18.7872 18.8499 18.583 19.8472 18.5149 20.8767C18.4809 21.4879 18.2766 22.0992 18.2766 22.7426C18.2766 23.0643 18.3787 23.4182 18.3787 23.7721C18.3787 24.1582 18.3106 24.5764 18.3106 24.9625C18.3106 25.8633 18.8213 27.8901 19.7745 28.6944C20.6255 29.4343 22.1574 30.1099 23.2128 30.1099C23.2468 30.1099 23.3149 30.0777 23.7915 30.0456C24.166 30.0456 24.5404 30.0777 24.9149 30.0777C25.4596 30.0777 26.6851 29.8525 27.1617 29.4343C27.366 29.6917 27.7404 29.7239 28.4553 29.7239C28.6255 30.1099 28.9319 30.3995 29 30.7855C29 31.3646 28.7617 31.8794 28.6596 32.4584C28.5574 32.9088 28.5574 33.4879 28.0128 33.7131C27.0596 34.0992 25.9702 34.1957 24.9489 34.3887C24.4043 34.4853 23.9617 34.807 23.4511 34.807ZM23.1447 14.0563C23.4511 14.0563 23.7574 13.992 24.0298 13.9598C23.6213 13.7989 23.2128 13.7346 22.8043 13.7346C22.5319 13.7346 22.0894 13.8954 21.7149 14.0885C22.2596 14.0563 22.7702 14.0563 23.1447 14.0563ZM21.1021 32.2654C21.1702 32.2976 21.2043 32.2976 21.2723 32.2976C21.5106 32.2976 21.7489 32.1689 21.9872 32.1367C20.7617 31.7507 19.366 31.0751 18.2085 30.4638C17.3915 30.0456 17.017 29.2735 16.5064 28.63C16.6766 29.9491 17.5617 30.7534 18.8894 31.7828C19.6383 31.815 20.3872 32.008 21.1021 32.2654Z" fill="#8B6D54"/>
</svg>
