<svg width="1440" height="624" viewBox="0 0 1440 624" xmlns="http://www.w3.org/2000/svg">
    <path d="M1440 .7V624L0 589c22.56-43.333 36.676-73.889 42.345-91.667 22.6-70.875 23.821-109.722 25.633-130.69 4.451-51.51 12.999-81.274 13.99-91.165 6.789-67.801 5.512-113.41 7.026-124.873 5.292-40.074 11.927-64.023 12.465-70.01A946.975 946.975 0 0 0 105.254.7H1440zM120 514.323c-7.18 0-13 5.82-13 13s5.82 13 13 13 13-5.82 13-13-5.82-13-13-13zm6-95.002c-7.18 0-13 5.82-13 13s5.82 13 13 13 13-5.82 13-13-5.82-13-13-13zm7-95.001c-7.18 0-13 5.82-13 13s5.82 13 13 13 13-5.82 13-13-5.82-13-13-13zm8-95.002c-7.18 0-13 5.82-13 13s5.82 13 13 13 13-5.82 13-13-5.82-13-13-13zm6-95.002c-7.18 0-13 5.82-13 13s5.82 13 13 13 13-5.82 13-13-5.82-13-13-13zm5-95.002c-7.18 0-13 5.82-13 13s5.82 13 13 13 13-5.82 13-13-5.82-13-13-13z" fill="#FFF" fill-rule="evenodd"/>
</svg>
