<svg width="1440" height="111" viewBox="0 0 1440 111" xmlns="http://www.w3.org/2000/svg">
    <g fill="none" fill-rule="evenodd">
        <path d="M0 0h1440v111H0z"/>
        <path d="M1265.736 53.5c-2.685-33.802 8.034-33.85 14.197-35.014 6.164-1.163 16.907 1.82 18.2 16.274" stroke="#A3D2CA" stroke-width="4.8" stroke-linecap="round"/>
        <path d="M199.56 111c6.027-1.143 55.673-4.527 88.42-4.527 7.761 0 43.603-.756 90.014-8.106 10.014-1.586 64.565-2.2 130.665-8.515 11.204-1.07 83.735-4.025 133.592-10.162 9.214-1.134 71.816-9.854 168.17-9.854 13.33 0 92.192-10.868 228.755-20.795 47.15-3.427 143.517-3.427 225.793-11.435 10.417-1.014 68.761-3.55 175.031-7.606v81H900.436c-327.839.002-561.465.002-700.877 0z" fill="#FFF"/>
        <path d="M1281.224 18.259c10.672 0 16.087 6.234 16.91 18.741l3.736 46.722c1.157 10.46-2.135 16.622-10.417 17.927-8.283 1.305-13.512-4.977-14.564-14.93l-1.919-30.767" stroke="#A3D2CA" stroke-width="4.8" stroke-linecap="round"/>
    </g>
</svg>
