<?xml version="1.0" encoding="UTF-8"?>
<svg width="103px" height="5px" viewBox="0 0 103 5" version="1.1" xmlns="http://www.w3.org/2000/svg" xmlns:xlink="http://www.w3.org/1999/xlink">
    <title>F994CCD9-F376-40A0-BE0D-1D486B2AF456</title>
    <g id="Page-1" stroke="none" stroke-width="1" fill="none" fill-rule="evenodd" stroke-linecap="round">
        <g id="A-01.1a-home" transform="translate(-1005.000000, -72.000000)" stroke="#FFA461" stroke-width="2">
            <path d="M1057.7516,24.0826415 C1058.70476,29.4826288 1055.08838,32.0189314 1055.08838,35.6618116 C1055.08838,39.9329905 1057.7516,41.4572749 1057.7516,45.1008642 C1057.7516,49.8488038 1055.08838,50.0638827 1055.08838,55.0776979 C1055.08838,58.7689026 1057.7516,61.387033 1057.7516,64.9051692 C1057.7516,68.4233054 1055.08838,71.4899637 1055.08838,75.4670776 C1055.08838,79.4441914 1057.7516,81.3938905 1057.7516,85.3134255 C1057.7516,89.2329604 1055.08838,90.5056738 1055.08838,95.3279859 C1055.08838,100.150298 1057.7516,101.383369 1057.7516,106.154047 C1057.7516,110.924724 1055.08838,110.979604 1055.08838,116.177889 C1055.08838,121.376174 1057.7516,121.376174 1057.7516,125.082641" id="img-wavy" transform="translate(1056.500000, 74.582641) rotate(-90.000000) translate(-1056.500000, -74.582641) "></path>
        </g>
    </g>
</svg>