<svg width="24" height="24" viewBox="0 0 24 24" xmlns="http://www.w3.org/2000/svg">
    <g fill-rule="nonzero" fill="none">
        <path d="M5.527 15.391c-.381 0-.744.015-1.105-.004a4.39 4.39 0 0 1-.87-.114c-.762-.195-1.365-.653-1.829-1.315-.492-.703-.717-1.5-.72-2.37-.003-.937-.005-1.875 0-2.812.007-1.089.352-2.04 1.096-2.801.546-.56 1.203-.915 1.974-.947.775-.033 1.552-.025 2.327-.027.542 0 1.085-.01 1.625.027.86.058 1.571.466 2.149 1.134.443.513.73 1.115.853 1.798.043.242.072.491.074.736.009.885-.008 1.769.006 2.652.016.963-.178 1.877-.523 2.762-.526 1.353-1.25 2.571-2.23 3.608-.443.468-.931.883-1.527 1.122-.28.113-.569.199-.873.142a.534.534 0 0 1-.411-.437 1.39 1.39 0 0 1-.016-.232V15.39zm-3.132-2.578c-.005.665.487 1.265 1.21 1.271.664.006 1.206-.593 1.199-1.289-.007-.69-.564-1.274-1.208-1.267-.669.007-1.203.579-1.2 1.284z" fill="#124098"/>
        <path d="M17.42 15.392h-.177c-.418-.007-.836.004-1.253-.025-1.002-.07-1.783-.577-2.378-1.414-.497-.7-.714-1.5-.717-2.37a312.61 312.61 0 0 1 0-2.796c.007-1.116.365-2.086 1.14-2.853.536-.532 1.175-.881 1.921-.9a87.787 87.787 0 0 1 3.718-.024c1.717.03 2.964 1.38 3.255 3.017.046.255.058.52.06.782.008.772-.016 1.544.008 2.316a7.636 7.636 0 0 1-.606 3.194c-.527 1.27-1.222 2.423-2.153 3.404-.444.467-.932.882-1.528 1.12-.274.11-.56.194-.859.14-.227-.041-.391-.232-.421-.475a1.752 1.752 0 0 1-.011-.218V15.39zM14.284 12.8c-.016.665.476 1.276 1.207 1.288.654.01 1.196-.575 1.203-1.27.007-.694-.534-1.29-1.2-1.288-.696.003-1.217.585-1.211 1.27z" fill="#E6266E"/>
    </g>
</svg>
