<svg width="86" height="103" viewBox="0 0 86 103" xmlns="http://www.w3.org/2000/svg" xmlns:xlink="http://www.w3.org/1999/xlink">
    <defs>
        <path id="p4t4ieif5a" d="M0 0h86v103H0z"/>
    </defs>
    <g fill="none" fill-rule="evenodd">
        <mask id="fn9gs3lx0b" fill="#fff">
            <use xlink:href="#p4t4ieif5a"/>
        </mask>
        <g mask="url(#fn9gs3lx0b)">
            <path d="M68.788 96.675c-.543-1.379-1.067-2.765-1.631-4.135-2.46-5.97-4.93-11.934-7.399-17.9-.838-2.025-1.683-4.048-2.527-6.072-.053-.127-.124-.248-.286-.572v25.496h2.588v2.273h-7.607V93.54h2.695V68.441C50.234 77.608 45.958 86.83 41.7 96.017c-.13.008-.183.026-.224.012-1.476-.532-1.497-.541-.854-1.927 3.115-6.722 6.245-13.438 9.363-20.159 1.487-3.205 2.967-6.414 4.423-9.633a3.34 3.34 0 0 0 .28-1.33c.024-6.4.018-12.8.033-19.2.017-6.96.049-13.92.074-20.878v-1.145c-.416.145-.732.241-1.036.364-1.418.57-2.828 1.16-4.254 1.71-.196.075-.611.043-.678-.075-.706-1.248-1.362-2.523-2.069-3.86L74.92 5.42c.68.388 5.284 0 3.708 6.169 0 0-3.187 1.371-4.744 2.033-5.468 2.324-10.932 4.654-16.412 6.95-.525.221-.53.546-.53.971-.005 7.106-.015 14.213-.022 21.319-.006 6.522-.016 13.044-.004 19.566.001.447.102.92.272 1.335a4372.555 4372.555 0 0 0 6.41 15.54c2.06 4.975 4.128 9.947 6.189 14.922.231.558.438 1.127.667 1.72l-1.368.73h-.297z" stroke="#E6266E" stroke-width="1.296"/>
            <path d="M41.557 39.338c.152-2.324.303-4.494.428-6.665.033-.58-.009-1.163-.024-1.745-.077-2.964 3.122-3.841 5.043-2.969 1.625.738 2.228 2.043 2.17 3.65-.094 2.54-.25 5.08-.484 7.612-.167 1.807-.503 3.6-.765 5.398-.393 2.703-2.715 3.967-5.3 2.857-1.928-.829-3.84-1.697-5.754-2.556-1.24-.556-2.48-1.11-3.703-1.7-.398-.191-.562-.086-.743.263-2.067 4-4.177 7.979-6.185 12.007-.282.567-.138 1.372-.083 2.058.52 6.426 1.064 12.85 1.602 19.276.313 3.744.64 7.487.935 11.232.155 1.977-.563 3.279-2.207 3.968-2.33.978-5.46.048-5.73-3.297a8036.09 8036.09 0 0 0-1.362-16.596 4.504 4.504 0 0 0-.26-1.197c-.567 6.177-1.13 12.354-1.706 18.53a63.22 63.22 0 0 1-.383 3.249c-.46 3.164-4.12 3.607-6.037 2.464-1.198-.714-1.862-1.76-1.763-3.142.184-2.537.426-5.07.66-7.604.673-7.338 1.34-14.676 2.044-22.012.185-1.926.331-3.88.798-5.748.377-1.506 1.153-2.932 1.855-4.344 1.655-3.333 3.373-6.636 5.063-9.953.064-.125.108-.26.21-.511-1.29.113-2.482.242-3.679.316-1.808.111-3.619.228-5.43.263-2.151.042-3.534-1.275-3.598-3.324-.065-2.086 1.257-3.522 3.38-3.66 2.353-.151 4.718-.2 7.057-.47 2.338-.268 4.653-.733 6.97-1.156.447-.081.842-.402 1.283-.552 1.788-.61 3.513-.46 5.301.184 1.372.494 2.32 1.432 3.38 2.293 2.009 1.634 4.385 2.599 7.017 3.581" stroke="#E6266E" stroke-width="1.296"/>
            <path d="M40.632 23.27c.016 3.765-3.052 6.93-6.845 6.87-3.941-.062-6.834-2.965-6.884-6.84-.047-3.734 3.02-6.767 6.816-6.807 3.809-.04 6.897 2.988 6.913 6.776" stroke="#E6266E" stroke-width="1.296"/>
        </g>
    </g>
</svg>
