<svg width="180" height="43" viewBox="0 0 180 43" xmlns="http://www.w3.org/2000/svg">
    <g fill-rule="nonzero" fill="none">
        <path d="M26.422 29.684c-.963 0-1.879.035-2.79-.011-.736-.036-1.484-.097-2.196-.273-1.92-.472-3.441-1.578-4.612-3.175-1.242-1.696-1.81-3.62-1.816-5.72a786.833 786.833 0 0 1 0-6.786c.017-2.627.887-4.92 2.764-6.76 1.379-1.35 3.034-2.207 4.981-2.284 1.955-.08 3.914-.061 5.87-.064 1.366-.002 2.737-.023 4.098.064 2.171.14 3.965 1.125 5.422 2.737a8.76 8.76 0 0 1 2.152 4.34c.109.583.182 1.184.187 1.776.022 2.133-.02 4.267.016 6.399.039 2.324-.45 4.53-1.319 6.665-1.329 3.265-3.156 6.204-5.628 8.706-1.117 1.13-2.348 2.132-3.851 2.71-.704.271-1.434.478-2.203.342a1.315 1.315 0 0 1-1.036-1.056 3.213 3.213 0 0 1-.04-.56c-.003-2.19-.001-4.383-.001-6.574v-.476h.002zm-7.902-6.223a3.027 3.027 0 0 0 3.052 3.068c1.674.015 3.043-1.43 3.023-3.11-.017-1.667-1.42-3.075-3.047-3.058-1.686.016-3.034 1.396-3.028 3.099v.001z" fill="#124098"/>
        <path d="M56.421 29.685c-.174 0-.308.002-.445 0-1.054-.016-2.109.01-3.16-.06-2.527-.168-4.498-1.392-5.998-3.412-1.254-1.687-1.802-3.622-1.81-5.719-.008-2.25-.013-4.5 0-6.748.018-2.693.922-5.033 2.874-6.885 1.353-1.283 2.966-2.127 4.849-2.173 3.125-.076 6.253-.107 9.378-.056 4.33.07 7.477 3.33 8.212 7.28.115.617.146 1.256.153 1.886.02 1.864-.041 3.727.017 5.59.085 2.698-.461 5.25-1.528 7.708-1.33 3.066-3.082 5.848-5.432 8.214-1.118 1.129-2.35 2.129-3.853 2.704-.693.267-1.413.47-2.167.338-.574-.1-.987-.56-1.064-1.147a4.047 4.047 0 0 1-.027-.526c-.002-2.18 0-4.359 0-6.538v-.457l.001.001zm-7.908-6.253c-.039 1.607 1.203 3.08 3.047 3.108 1.65.024 3.016-1.386 3.034-3.064.018-1.674-1.348-3.113-3.026-3.107a3.036 3.036 0 0 0-3.056 3.063h.001z" fill="#E6266E"/>
        <g fill="#363838">
            <path d="M84.693 30.124c-.544 0-.816-.268-.816-.806v-.75h-2.089c-.525 0-.788-.269-.788-.806 0-.538.263-.793.788-.793h2.089v-.556c0-.537.272-.806.816-.806.543 0 .802.269.802.806v.556h3.014v-.542c0-.547.272-.82.816-.82.544 0 .816.273.816.82v.542h2.144c.525 0 .788.264.788.793 0 .528-.263.806-.788.806h-2.144v.736c0 .547-.272.82-.816.82-.544 0-.816-.273-.816-.82v-.736h-3.014v.75c0 .538-.268.806-.802.806zm-3.513 7.784c-.36-.63-.11-1.024.747-1.181 1.438-.315 2.669-.746 3.692-1.293-.977-.982-1.775-2.242-2.392-3.78-.102-.26-.113-.48-.035-.66.078-.182.242-.304.49-.37.462-.12.79.061.983.543.544 1.343 1.327 2.455 2.35 3.336 1.006-.844 1.776-1.928 2.31-3.253.203-.602.577-.834 1.12-.695.6.149.775.547.526 1.196-.618 1.473-1.47 2.705-2.558 3.697.995.547 2.162.959 3.499 1.237.922.157 1.175.56.76 1.21-.24.379-.64.518-1.203.416-1.789-.37-3.287-.964-4.495-1.779-.7.445-1.525.843-2.475 1.195-.655.241-1.37.454-2.144.64-.544.11-.936-.042-1.175-.459zM95.341 37.408c-.525-.288-.636-.672-.332-1.154.286-.51.53-1.075.733-1.696.176-.546.521-.722 1.038-.528.451.167.613.477.484.931-.102.343-.235.732-.401 1.168-.148.38-.3.723-.457 1.028-.258.427-.613.51-1.065.25zm6.071-2.238c-.378-.324-.797-.64-1.258-.945-.277-.167-.426-.369-.45-.605-.023-.236.081-.466.312-.688l.18-.167H96.82c-.267 0-.484-.083-.65-.25-.166-.167-.249-.384-.249-.653V27.08c0-.268.083-.486.25-.653.165-.167.382-.25.65-.25h7.993c.267 0 .484.083.65.25.166.167.249.385.249.653v4.782c0 .269-.083.486-.25.653-.165.167-.382.25-.65.25h-4.273c.72.362 1.388.793 2.006 1.293.193.176.28.347.262.514-.009.148-.115.32-.318.514-.203.195-.382.306-.54.334-.174.019-.354-.065-.539-.25zm-3.969-6.394h2.587V27.61h-2.255c-.221 0-.332.11-.332.333v.834zm.332 2.558h2.255V30.11h-2.587V31c0 .221.111.333.332.333zm2.379 6.991c-.894 0-1.498-.144-1.812-.43-.304-.27-.456-.78-.456-1.53v-1.46c0-.546.277-.82.83-.82.553 0 .816.274.816.82v1.446c0 .204.048.334.145.39.097.055.316.083.657.083h1.95c.221 0 .378-.046.47-.14.083-.407.207-.713.373-.916.212-.241.47-.297.775-.167.203.083.336.273.4.57.056.25.06.519.015.806-.13.51-.341.866-.636 1.07-.277.185-.697.278-1.259.278h-2.268zm1.438-9.549h2.517v-.834c0-.222-.11-.333-.332-.333h-2.185v1.167zm0 2.558h2.185c.222 0 .332-.112.332-.334v-.89h-2.517v1.224zm3.776 5.518a20.453 20.453 0 0 0-.374-.806 12.428 12.428 0 0 0-.553-1.029c-.313-.491-.193-.857.36-1.098.424-.167.76-.07 1.01.292.543.815.94 1.538 1.189 2.168.083.241.083.436 0 .584-.074.13-.235.25-.484.361-.59.25-.973.093-1.148-.472zM109.268 38.214c-.526-.528-.383-.89.428-1.084 1.06-.278 1.904-.575 2.531-.89h-1.12c-.267 0-.484-.083-.65-.25-.166-.167-.249-.385-.249-.653V31.5c0-.268.083-.486.25-.653.165-.167.382-.25.65-.25h1.963a4.777 4.777 0 0 0-.553-.876 8.32 8.32 0 0 1-.374.112c-1.29.36-2.226.62-2.807.778-.387.102-.65-.056-.788-.473-.083-.25-.102-.435-.056-.556.046-.139.185-.231.415-.278l1.687-.375c.378-.083.664-.148.858-.195.313-.074.57-.046.767.084.199.13.316.338.353.625l.014.153c.986-.176 1.715-.421 2.185-.736a2.1 2.1 0 0 0 .857-1.182h-.982c-.156.195-.35.408-.58.64-.342.315-.678.366-1.01.152-.489-.305-.461-.685.083-1.14.369-.37.691-.787.968-1.25.166-.325.461-.45.885-.376.516.093.66.362.429.807h4.3c.333 0 .554.095.665.285.11.19.092.451-.056.785a5.64 5.64 0 0 1-.594.959c-.166.204-.406.255-.72.153-.525-.167-.631-.473-.317-.918.009-.009.02-.025.034-.048a.269.269 0 0 1 .035-.049h-1.522c.12.38.323.69.609.931.341.297.834.538 1.48.723.442.084.788.218 1.037.403.304.223.373.477.207.765-.212.343-.544.472-.995.389a1.26 1.26 0 0 0-.208-.056v4.504c0 .268-.083.486-.249.653-.166.167-.382.25-.65.25h-1.48c.803.278 1.71.64 2.725 1.084.433.204.631.39.595.556-.037.158-.295.33-.775.514a1.78 1.78 0 0 1-.47.126.947.947 0 0 1-.443-.126c-.608-.333-1.249-.639-1.922-.917-.396-.157-.606-.34-.63-.549-.022-.208.132-.41.464-.604l.152-.084h-4.01l.677.292c.175.083.27.176.284.278.014.102-.053.2-.2.292-.95.528-2.03.977-3.237 1.348-.36.111-.673.033-.94-.236zm.152-10.41c-.415 0-.622-.21-.622-.626 0-.417.207-.626.622-.626h2.42c.415 0 .622.209.622.626 0 .417-.207.625-.622.625h-2.42zm2.365 4.378h5.933v-.598h-5.601c-.222 0-.332.111-.332.333v.265zm0 1.528h5.933v-.597h-5.933v.597zm.262 1.543h5.339c.221 0 .332-.11.332-.333v-.278h-5.933v.347c0 .176.087.264.262.264zm1.964-4.656h4.592c-.96-.352-1.655-.852-2.089-1.501-.488.658-1.323 1.158-2.503 1.501zM122.78 29.193c-.434 0-.65-.218-.65-.653 0-.436.216-.653.65-.653h3.9c.433 0 .65.217.65.653 0 .435-.217.653-.65.653h-3.9zm.843 8.646c-.268 0-.484-.084-.65-.25-.166-.167-.25-.385-.25-.654v-2.39c0-.27.084-.487.25-.654.166-.167.382-.25.65-.25h2.365c.267 0 .484.083.65.25.166.167.249.385.249.653v2.391c0 .269-.083.487-.25.653-.165.167-.382.25-.65.25h-2.364zm-.235-6.756c-.415 0-.623-.213-.623-.639 0-.426.208-.625.623-.625h2.862c.415 0 .623.208.623.625 0 .417-.208.64-.623.64h-2.862zm-.014 1.877c-.406 0-.609-.209-.609-.626 0-.417.203-.611.609-.611h2.89c.406 0 .609.204.609.611 0 .408-.203.626-.609.626h-2.89zm.055-5.685c-.415 0-.622-.208-.622-.625 0-.417.207-.626.622-.626h2.78c.415 0 .622.209.622.626 0 .417-.207.625-.622.625h-2.78zm.996 9.27h.747c.221 0 .332-.11.332-.333v-.93c0-.223-.111-.335-.332-.335h-.747c-.221 0-.332.112-.332.334v.931c0 .223.11.334.332.334zm5.006 1.766c-.507 0-.76-.25-.76-.75v-4.476h-.692c-.507 0-.76-.26-.76-.778 0-.52.253-.765.76-.765h.692v-2.418c0-.5.253-.75.76-.75s.747.25.747.75v2.418h.622c.507 0 .761.255.761.765s-.254.778-.76.778h-.623v4.476c0 .5-.249.75-.747.75zm3.886.18c-.636-.25-1.064-1.375-1.286-3.377-.147-1.334-.226-3.586-.235-6.755 0-.324-.11-.486-.332-.486h-3.25c-.516 0-.774-.264-.774-.793 0-.528.258-.778.774-.778h4.315c.6 0 .894.417.885 1.251-.046 2.558-.032 4.624.042 6.2.101 1.945.295 2.955.58 3.03.028.008.056-.066.084-.223.036-.473.12-.779.248-.918.148-.166.332-.078.554.265.138.213.166.62.083 1.223-.277 1.26-.84 1.714-1.688 1.362zM138.822 38.436c-.397 0-.595-.194-.595-.584v-3.03l-.055.07s-.014.01-.014 0a35.884 35.884 0 0 0-.374-.417c-.12 1.167-.309 2.205-.567 3.113-.11.306-.23.491-.36.556-.147.056-.34-.009-.58-.194-.175-.13-.281-.278-.318-.445-.037-.148-.019-.338.055-.57.397-1.436.595-3.54.595-6.31v-3.628c0-.213.057-.364.173-.452.115-.088.274-.104.477-.048l.041.014c1.485-.14 2.73-.334 3.734-.584.268-.084.53.004.789.264.24.24.348.435.325.584-.023.148-.196.264-.519.347-1.051.232-2.273.403-3.665.514v.473h3.693c.267 0 .484.083.65.25.166.167.249.385.249.653v1.404c0 .269-.083.487-.25.654-.165.166-.382.25-.65.25h-.87l.594.167c.157.046.26.125.311.236.05.111.035.24-.048.389a.972.972 0 0 1-.062.132 5.71 5.71 0 0 0-.076.146h.608c.341 0 .512.171.512.514 0 .343-.17.515-.512.515h-.774v.472h.705c.304 0 .456.153.456.459 0 .306-.152.458-.456.458h-.705v.487h.705c.313 0 .47.157.47.473 0 .315-.157.472-.47.472h-.705v.487h.816c.184 0 .327.05.428.152.102.102.152.246.152.431v.042a7.287 7.287 0 0 0 1.204-.973c.156-.167.313-.26.47-.278.156-.01.336.046.54.167.46.287.506.62.137 1a9.03 9.03 0 0 1-1.175.946.839.839 0 0 1-.602.132.975.975 0 0 1-.56-.285 5.432 5.432 0 0 1-.276-.25h-3.07v.041c0 .39-.194.584-.581.584zm-.94-5.156a7.476 7.476 0 0 0 .857-1.96h-.775v.07a33.684 33.684 0 0 1-.083 1.89zm.082-3.183h2.808c.22 0 .331-.112.331-.334v-.097c0-.223-.11-.334-.331-.334h-2.808v.765zm1.618 2.293h.76c.028-.065.063-.16.105-.285l.09-.271c.073-.24.12-.412.138-.514h-1.715l.498.125c.267.074.364.245.29.514l-.083.216c-.037.097-.064.169-.083.215zm-.18 1.501h.872v-.472h-.872v.472zm0 1.404h.872v-.487h-.872v.487zm.194 1.432h.678v-.487h-.872v.292c0 .13.065.195.194.195zm4.48-.946c-.267 0-.483-.083-.65-.25-.165-.167-.248-.384-.248-.653v-5.56c0-.268.083-.486.249-.653.166-.167.382-.25.65-.25h.747c.027-.195.06-.487.096-.876h-1.313c-.461 0-.692-.232-.692-.695 0-.463.23-.695.692-.695h4.26c.46 0 .69.232.69.695 0 .463-.23.695-.69.695h-1.328c-.083.306-.166.598-.25.876h1.162c.268 0 .484.083.65.25.166.167.25.385.25.653v5.56c0 .269-.084.486-.25.653-.166.167-.382.25-.65.25h-3.374zm.43-5.267h2.461v-.515c0-.222-.11-.333-.332-.333h-1.798c-.22 0-.331.11-.331.333v.515zm0 2.015h2.461v-.862h-2.461v.862zm.331 2.015h1.798c.222 0 .332-.11.332-.333v-.514h-2.461v.514c0 .222.11.333.331.333zm2.434 3.503a1.976 1.976 0 0 1-.11-.125 4.658 4.658 0 0 0-.235-.264 2.634 2.634 0 0 0-.374-.403c-.36-.362-.318-.69.125-.987.313-.204.6-.19.857.042.378.352.687.658.927.917.157.185.221.357.193.514-.036.14-.16.283-.373.431-.396.269-.733.227-1.01-.125zM151.268 38.575c-.544 0-.816-.269-.816-.806V27.025c0-.269.083-.487.25-.653.165-.167.382-.25.65-.25h3.429c.267 0 .484.083.65.25.166.166.249.384.249.653v3.364c0 .268-.083.486-.25.653-.165.167-.382.25-.65.25h-2.71v6.477c0 .537-.267.806-.802.806zm.802-10.438h2.089v-.417c0-.223-.111-.334-.332-.334h-1.425c-.221 0-.332.111-.332.334v.417zm0 1.904h1.757c.221 0 .332-.111.332-.334v-.458h-2.089v.792zm2.31 6.574c-.267 0-.484-.083-.65-.25-.166-.167-.249-.384-.249-.653v-2.558c0-.268.083-.486.249-.653.166-.167.383-.25.65-.25h3.499c.267 0 .484.083.65.25.166.167.249.385.249.653v2.558c0 .269-.083.486-.25.653-.165.167-.382.25-.65.25h-3.498zm.954-1.362h1.59c.222 0 .332-.11.332-.333v-.973c0-.223-.11-.334-.331-.334h-1.59c-.222 0-.333.111-.333.334v.973c0 .222.11.333.332.333zm2.987 2.641c-.22-.686.143-1.01 1.093-.973.11 0 .249-.004.415-.014h.152c.24 0 .36-.11.36-.333v-5.268h-2.808c-.267 0-.484-.084-.65-.25-.166-.167-.249-.385-.249-.654v-3.377c0-.269.083-.487.249-.653.166-.167.383-.25.65-.25h3.568c.267 0 .484.083.65.25.166.166.249.384.249.653V36.6c0 .464-.055.82-.166 1.07-.12.26-.323.455-.608.585-.35.176-.9.277-1.646.305-.692.019-1.111-.204-1.259-.667zm-.138-9.757h2.157v-.431c0-.222-.11-.334-.331-.334h-1.494c-.221 0-.332.112-.332.334v.43zm.332 1.918h1.825v-.806h-2.157v.472c0 .223.11.334.332.334z"/>
        </g>
        <g fill="#363838">
            <path d="M81 6.57h7.206v1.75h-5.27v2.862h4.993v1.686h-4.993v3.18h5.547v1.78H81V6.572zM89.298 10.195h2.043l2.06 5.547h.032l1.828-5.547h1.92l-3.487 9.268c-.135.35-.277.66-.43.93-.154.27-.339.498-.554.685-.215.185-.47.327-.76.421-.29.095-.643.142-1.053.142a4.51 4.51 0 0 1-.469-.023 3.24 3.24 0 0 1-.483-.088l.154-1.652c.123.042.242.07.361.087.117.017.23.024.33.024.194 0 .36-.024.492-.071a.856.856 0 0 0 .339-.223c.091-.101.174-.225.244-.374.071-.149.15-.324.232-.525l.368-.97-3.165-7.63h-.002zM105.633 14.106v.253c0 .086-.005.17-.016.254h-5.61a1.923 1.923 0 0 0 .678 1.342 2.3 2.3 0 0 0 .661.388c.245.095.502.142.77.142.46 0 .848-.087 1.166-.263.319-.175.58-.416.785-.724l1.23 1.018c-.728 1.018-1.783 1.527-3.166 1.527-.574 0-1.1-.092-1.581-.28a3.716 3.716 0 0 1-1.254-.785 3.55 3.55 0 0 1-.828-1.248c-.2-.492-.3-1.051-.3-1.676s.1-1.174.3-1.676c.199-.504.473-.933.821-1.288s.76-.63 1.238-.826c.476-.197.991-.294 1.545-.294.512 0 .986.088 1.42.263a3.08 3.08 0 0 1 1.13.779c.317.343.567.774.745 1.288.179.513.27 1.115.27 1.804l-.004.002zm-1.845-.86c0-.243-.034-.475-.1-.698a1.588 1.588 0 0 0-.316-.587 1.523 1.523 0 0 0-.545-.405 1.83 1.83 0 0 0-.776-.151c-.554 0-1.02.173-1.405.516-.384.346-.597.786-.638 1.328h3.78v-.002zM111.763 12.231a2.15 2.15 0 0 0-.675-.58 1.86 1.86 0 0 0-.936-.246c-.297 0-.57.064-.814.192-.245.127-.369.338-.369.636 0 .299.135.507.407.628.27.123.669.246 1.19.374.277.064.557.149.838.253.282.107.538.246.769.421.231.176.416.393.56.652.145.26.216.575.216.946 0 .467-.085.862-.254 1.184-.17.324-.394.585-.675.786a2.79 2.79 0 0 1-.984.438c-.376.09-.76.135-1.16.135a4.456 4.456 0 0 1-1.676-.327 3.557 3.557 0 0 1-1.352-.93l1.213-1.177c.206.275.471.505.798.685.328.18.691.27 1.092.27.133 0 .268-.017.407-.048.138-.03.266-.083.385-.151a.79.79 0 0 0 .283-.277.79.79 0 0 0 .108-.429c0-.317-.14-.547-.421-.684-.282-.137-.705-.275-1.268-.414a5.696 5.696 0 0 1-.805-.247c-.261-.099-.495-.232-.7-.397a1.846 1.846 0 0 1-.493-.613c-.123-.244-.185-.547-.185-.907 0-.424.085-.788.254-1.096.17-.308.391-.559.668-.755.277-.197.588-.341.938-.438a4.08 4.08 0 0 1 1.076-.142c.533 0 1.053.094 1.56.286.506.192.91.483 1.207.874l-1.2 1.096-.002.002zM114.422 12.167c0-.9.147-1.714.438-2.44a5.375 5.375 0 0 1 1.212-1.852 5.37 5.37 0 0 1 1.845-1.177 6.412 6.412 0 0 1 2.327-.414c.84 0 1.634.137 2.35.414a5.403 5.403 0 0 1 1.86 1.177c.523.51.93 1.127 1.223 1.851.293.727.437 1.54.437 2.441 0 .902-.146 1.683-.437 2.408a5.5 5.5 0 0 1-1.222 1.875 5.553 5.553 0 0 1-1.86 1.224 6.189 6.189 0 0 1-2.35.438 6.055 6.055 0 0 1-2.328-.438 5.45 5.45 0 0 1-1.845-1.224 5.628 5.628 0 0 1-1.212-1.875c-.291-.727-.438-1.53-.438-2.408zm2.106 0c0 .604.09 1.158.268 1.662.178.504.437.94.768 1.312.332.371.728.66 1.184.866.455.206.96.31 1.512.31s1.062-.104 1.522-.31a3.467 3.467 0 0 0 1.19-.866 3.94 3.94 0 0 0 .769-1.312 4.95 4.95 0 0 0 .27-1.662c0-.604-.09-1.122-.27-1.622-.18-.5-.433-.932-.76-1.304a3.5 3.5 0 0 0-1.183-.874 3.647 3.647 0 0 0-1.535-.317 3.6 3.6 0 0 0-1.53.317 3.607 3.607 0 0 0-1.175.874 3.973 3.973 0 0 0-.76 1.304c-.179.5-.268 1.04-.268 1.622h-.002zM128.206 10.195h1.753v1.224h.032c.164-.381.448-.717.853-1.008.405-.292.884-.438 1.437-.438.48 0 .895.087 1.238.262.344.176.625.405.845.692.22.286.382.615.483.984.103.372.153.753.153 1.144v4.768h-1.844v-4.228c0-.223-.016-.455-.046-.699a2.011 2.011 0 0 0-.2-.66 1.374 1.374 0 0 0-.423-.486c-.178-.127-.416-.191-.714-.191-.297 0-.551.061-.769.182-.215.123-.39.28-.53.469-.138.191-.245.41-.316.66-.071.249-.108.5-.108.755v4.198h-1.844v-7.63.002z"/>
        </g>
    </g>
</svg>
