<svg width="206" height="127" viewBox="0 0 206 127" xmlns="http://www.w3.org/2000/svg">
    <g fill-rule="nonzero" fill="none" opacity=".199">
        <path d="M43.447 94.264c-3.662 0-7.145.13-10.609-.043-2.802-.136-5.647-.365-8.357-1.026-7.3-1.775-13.089-5.93-17.543-11.934-4.726-6.375-6.885-13.61-6.91-21.5-.024-8.501-.049-17.003 0-25.511.069-9.875 3.378-18.494 10.517-25.407C15.79 3.766 22.087.545 29.492.254c7.435-.297 14.89-.229 22.33-.24 5.197-.007 10.411-.087 15.589.24 8.258.526 15.081 4.23 20.624 10.29 4.256 4.649 7.014 10.109 8.184 16.31.414 2.196.692 4.453.71 6.678.087 8.02-.073 16.04.063 24.053.148 8.737-1.714 17.029-5.017 25.055-5.054 12.274-12.007 23.323-21.41 32.728-4.249 4.248-8.932 8.013-14.647 10.184-2.679 1.02-5.456 1.799-8.382 1.286-1.986-.353-3.582-1.997-3.94-3.97-.124-.686-.149-1.404-.149-2.102-.012-8.236-.006-16.479-.006-24.715v-1.787h.006zm-29.446-23.2C13.943 77.31 18.85 82.942 26.058 83c6.61.057 12.018-5.568 11.941-12.102-.07-6.483-5.614-11.961-12.038-11.897-6.661.064-11.986 5.433-11.96 12.057v.006z" fill="#124098"/>
        <path d="M152.447 94.264c-3.662 0-7.145.13-10.609-.043-2.802-.136-5.647-.365-8.357-1.026-7.3-1.775-13.089-5.93-17.543-11.934-4.726-6.375-6.885-13.61-6.91-21.5-.024-8.501-.049-17.003 0-25.511.069-9.875 3.378-18.494 10.517-25.407C124.79 3.766 131.087.545 138.492.254c7.435-.297 14.89-.229 22.33-.24 5.197-.007 10.411-.087 15.589.24 8.258.526 15.081 4.23 20.624 10.29 4.256 4.649 7.014 10.109 8.184 16.31.414 2.196.692 4.453.71 6.678.087 8.02-.073 16.04.063 24.053.148 8.737-1.714 17.029-5.017 25.055-5.054 12.274-12.007 23.323-21.41 32.728-4.249 4.248-8.932 8.013-14.647 10.184-2.679 1.02-5.456 1.799-8.382 1.286-1.986-.353-3.582-1.997-3.94-3.97-.124-.686-.149-1.404-.149-2.102-.012-8.236-.006-16.479-.006-24.715v-1.787h.006zm-30.446-23.2c-.058 6.246 4.85 11.878 12.057 11.936 6.61.057 12.018-5.568 11.941-12.102-.07-6.483-5.614-11.961-12.038-11.897-6.661.064-11.986 5.433-11.96 12.057v.006z" fill="#E6266E"/>
    </g>
</svg>
