<svg width="218" height="43" viewBox="0 0 218 43" xmlns="http://www.w3.org/2000/svg">
    <g fill-rule="nonzero" fill="none">
        <path d="M26.422 29.684c-.963 0-1.879.035-2.79-.011-.736-.036-1.484-.097-2.196-.273-1.92-.472-3.441-1.578-4.612-3.175-1.242-1.696-1.81-3.62-1.816-5.72a786.833 786.833 0 0 1 0-6.786c.017-2.627.887-4.92 2.764-6.76 1.379-1.35 3.034-2.207 4.981-2.284 1.955-.08 3.914-.061 5.87-.064 1.366-.002 2.737-.023 4.098.064 2.171.14 3.965 1.125 5.422 2.737a8.76 8.76 0 0 1 2.152 4.34c.109.583.182 1.184.187 1.776.022 2.133-.02 4.267.016 6.399.039 2.324-.45 4.53-1.319 6.665-1.329 3.265-3.156 6.204-5.628 8.706-1.117 1.13-2.348 2.132-3.851 2.71-.704.271-1.434.478-2.203.342a1.315 1.315 0 0 1-1.036-1.056 3.213 3.213 0 0 1-.04-.56c-.003-2.19-.001-4.383-.001-6.574v-.476h.002zm-7.902-6.223a3.027 3.027 0 0 0 3.052 3.068c1.674.015 3.043-1.43 3.023-3.11-.017-1.667-1.42-3.075-3.047-3.058-1.686.016-3.034 1.396-3.028 3.099v.001z" fill="#124098"/>
        <path d="M56.421 29.685c-.174 0-.308.002-.445 0-1.054-.016-2.109.01-3.16-.06-2.527-.168-4.498-1.392-5.998-3.412-1.254-1.687-1.802-3.622-1.81-5.719-.008-2.25-.013-4.5 0-6.748.018-2.693.922-5.033 2.874-6.885 1.353-1.283 2.966-2.127 4.849-2.173 3.125-.076 6.253-.107 9.378-.056 4.33.07 7.477 3.33 8.212 7.28.115.617.146 1.256.153 1.886.02 1.864-.041 3.727.017 5.59.085 2.698-.461 5.25-1.528 7.708-1.33 3.066-3.082 5.848-5.432 8.214-1.118 1.129-2.35 2.129-3.853 2.704-.693.267-1.413.47-2.167.338-.574-.1-.987-.56-1.064-1.147a4.047 4.047 0 0 1-.027-.526c-.002-2.18 0-4.359 0-6.538v-.457l.001.001zm-7.908-6.253c-.039 1.607 1.203 3.08 3.047 3.108 1.65.024 3.016-1.386 3.034-3.064.018-1.674-1.348-3.113-3.026-3.107a3.036 3.036 0 0 0-3.056 3.063h.001z" fill="#E6266E"/>
        <g fill="#363838">
            <path d="M81 28.309h1.71v8.157H81zM89.918 32.556v3.907H88.29v-3.54c0-.76-.463-1.282-1.133-1.282-.705 0-1.248.522-1.248 1.188l-.013-.036v3.667h-1.685v-6.134h1.685v.77c.358-.557 1.028-.914 1.804-.914 1.293 0 2.218.984 2.218 2.374zM93.337 30.326h1.292v1.4h-1.292v4.737h-1.619v-4.736h-.82v-1.4h.82v-.535c0-1.106.74-1.877 1.791-1.877.485 0 1.028.214 1.376.535l-.406 1.056c-.114-.118-.347-.203-.577-.203-.313 0-.565.285-.565.689v.334zM95.38 33.39c0-1.745 1.49-3.205 3.268-3.205 1.778 0 3.246 1.46 3.246 3.205 0 1.744-1.478 3.217-3.246 3.217s-3.268-1.473-3.268-3.217zm4.909 0c0-.952-.75-1.745-1.64-1.745-.891 0-1.654.797-1.654 1.745 0 .947.75 1.758 1.653 1.758s1.64-.807 1.64-1.758zM106.768 30.182v1.46c-1.248 0-2.046.734-2.046 1.885v2.933h-1.685v-6.134h1.685v1.138c.393-.797 1.133-1.282 2.046-1.282zM117.05 32.556v3.917h-1.619v-3.621c0-.712-.44-1.21-1.063-1.21-.67 0-1.155.462-1.155 1.115v3.716h-1.619v-3.621c0-.712-.44-1.21-1.05-1.21-.683 0-1.155.462-1.155 1.115v3.703h-1.686v-6.134h1.686v.807c.287-.58.878-.951 1.618-.951.82 0 1.526.426 1.896 1.115.313-.676 1.05-1.115 1.94-1.115 1.249 0 2.206.984 2.206 2.374zM123.759 32.796v3.667h-1.628v-.617c-.428.499-1.108.761-1.756.761-1.27 0-2.253-.784-2.253-1.958s1.098-2.043 2.483-2.043c.485 0 1.018.108 1.526.308v-.118c0-.653-.393-1.223-1.376-1.223-.555 0-1.075.19-1.548.439l-.565-1.151c.843-.44 1.663-.676 2.496-.676 1.561 0 2.624 1.01 2.624 2.61h-.003zm-1.628 1.732v-.571a3.716 3.716 0 0 0-1.283-.226c-.613 0-1.098.367-1.098.866 0 .498.427.806 1.005.806.648 0 1.258-.308 1.376-.879v.004zM128.725 36.073c-.348.321-.89.534-1.375.534-1.05 0-1.791-.77-1.791-1.876v-3.004h-.82v-1.4h.82V28.64h1.618v1.686h1.293v1.4h-1.293v2.73c0 .403.256.688.565.688.23 0 .463-.082.578-.203l.405 1.128v.004zM129.696 28.532c0-.485.405-.925.925-.925s.9.44.9.925c0 .522-.405.951-.9.951-.494 0-.925-.426-.925-.95zm.07 1.794h1.685v6.137h-1.685v-6.137zM132.584 33.39c0-1.745 1.491-3.205 3.269-3.205s3.246 1.46 3.246 3.205c0 1.744-1.478 3.217-3.246 3.217s-3.269-1.473-3.269-3.217zm4.91 0c0-.952-.75-1.745-1.641-1.745-.89 0-1.653.797-1.653 1.745 0 .947.75 1.758 1.653 1.758s1.64-.807 1.64-1.758zM145.914 32.556v3.907h-1.628v-3.54c0-.76-.463-1.282-1.133-1.282-.706 0-1.248.522-1.248 1.188l-.013-.036v3.667h-1.685v-6.134h1.685v.77c.358-.557 1.028-.914 1.803-.914 1.293 0 2.219.984 2.219 2.374zM150.29 32.38c0-2.293 1.94-4.215 4.216-4.215 1.2 0 2.311.521 3.084 1.364l-1.235 1.138c-.463-.547-1.12-.915-1.849-.915-1.327 0-2.46 1.21-2.46 2.624 0 1.414 1.133 2.637 2.46 2.637.728 0 1.386-.367 1.849-.915l1.235 1.138c-.773.83-1.883 1.365-3.084 1.365-2.275 0-4.216-1.936-4.216-4.228v.006zM158.26 33.39c0-1.745 1.49-3.205 3.269-3.205 1.778 0 3.246 1.46 3.246 3.205 0 1.744-1.478 3.217-3.246 3.217-1.769 0-3.269-1.473-3.269-3.217zm4.91 0c0-.952-.75-1.745-1.641-1.745-.89 0-1.654.797-1.654 1.745 0 .947.75 1.758 1.654 1.758.903 0 1.64-.807 1.64-1.758zM171.59 32.556v3.907h-1.628v-3.54c0-.76-.463-1.282-1.133-1.282-.706 0-1.249.522-1.249 1.188l-.012-.036v3.667h-1.686v-6.134h1.686v.77c.357-.557 1.028-.914 1.803-.914 1.293 0 2.219.984 2.219 2.374zM172.56 35.679l.728-1.2c.533.39 1.2.688 1.998.688.45 0 .772-.19.772-.462 0-.38-.44-.499-1.05-.666-1.226-.308-2.17-.653-2.183-1.863-.013-1.164.925-1.994 2.333-1.994.856 0 1.698.308 2.356.76l-.683 1.234c-.543-.344-1.169-.548-1.676-.548-.415 0-.706.154-.706.368 0 .33.243.426 1.05.652 1.028.273 2.171.63 2.171 1.972 0 1.21-.957 1.98-2.426 1.98-.957 0-1.976-.33-2.69-.924l.006.003zM184.456 30.326v6.137h-1.685v-.77c-.358.557-1.028.914-1.804.914-1.292 0-2.218-.984-2.218-2.374v-3.907h1.628v3.54c0 .76.463 1.282 1.133 1.282.705 0 1.248-.522 1.248-1.188l.013.036V30.33h1.685v-.003zM185.899 28.165h1.685v8.298H185.9zM192.599 36.073c-.348.321-.89.534-1.376.534-1.05 0-1.79-.77-1.79-1.876v-3.004h-.821v-1.4h.82V28.64h1.619v1.686h1.292v1.4h-1.292v2.73c0 .403.255.688.565.688.23 0 .462-.082.577-.203l.406 1.128v.004zM198.941 32.796v3.667h-1.628v-.617c-.428.499-1.107.761-1.755.761-1.27 0-2.254-.784-2.254-1.958s1.098-2.043 2.483-2.043c.486 0 1.019.108 1.526.308v-.118c0-.653-.393-1.223-1.376-1.223-.555 0-1.075.19-1.548.439l-.565-1.151c.843-.44 1.663-.676 2.496-.676 1.561 0 2.624 1.01 2.624 2.61h-.003zm-1.628 1.732v-.571a3.716 3.716 0 0 0-1.283-.226c-.613 0-1.098.367-1.098.866 0 .498.428.806 1.005.806.648 0 1.258-.308 1.376-.879v.004zM206.033 32.556v3.907h-1.627v-3.54c0-.76-.463-1.282-1.134-1.282-.705 0-1.248.522-1.248 1.188l-.012-.036v3.667h-1.686v-6.134h1.686v.77c.357-.557 1.027-.914 1.803-.914 1.293 0 2.218.984 2.218 2.374zM211 36.073c-.348.321-.89.534-1.376.534-1.05 0-1.79-.77-1.79-1.876v-3.004h-.82v-1.4h.82V28.64h1.618v1.686h1.293v1.4h-1.293v2.73c0 .403.255.688.565.688.23 0 .463-.082.578-.203l.405 1.128v.004z"/>
        </g>
        <g fill="#363838">
            <path d="M81 8.57h7.206v1.75h-5.27v2.862h4.993v1.686h-4.993v3.18h5.547v1.78H81V8.572zM89.298 12.195h2.043l2.06 5.547h.032l1.828-5.547h1.92l-3.487 9.268c-.135.35-.277.66-.43.93-.154.27-.339.498-.554.685-.215.185-.47.327-.76.421-.29.095-.643.142-1.053.142a4.51 4.51 0 0 1-.469-.023 3.24 3.24 0 0 1-.483-.088l.154-1.652c.123.042.242.07.361.087.117.017.23.024.33.024.194 0 .36-.024.492-.071a.856.856 0 0 0 .339-.223c.091-.101.174-.225.244-.374.071-.149.15-.324.232-.525l.368-.97-3.165-7.63h-.002zM105.633 16.106v.253c0 .086-.005.17-.016.254h-5.61a1.923 1.923 0 0 0 .678 1.342 2.3 2.3 0 0 0 .661.388c.245.095.502.142.77.142.46 0 .848-.087 1.166-.263.319-.175.58-.416.785-.724l1.23 1.018c-.728 1.018-1.783 1.527-3.166 1.527-.574 0-1.1-.092-1.581-.28a3.716 3.716 0 0 1-1.254-.785 3.55 3.55 0 0 1-.828-1.248c-.2-.492-.3-1.051-.3-1.676s.1-1.174.3-1.676c.199-.504.473-.933.821-1.288s.76-.63 1.238-.826c.476-.197.991-.294 1.545-.294.512 0 .986.088 1.42.263a3.08 3.08 0 0 1 1.13.779c.317.343.567.774.745 1.288.179.513.27 1.115.27 1.804l-.004.002zm-1.845-.86c0-.243-.034-.475-.1-.698a1.588 1.588 0 0 0-.316-.587 1.523 1.523 0 0 0-.545-.405 1.83 1.83 0 0 0-.776-.151c-.554 0-1.02.173-1.405.516-.384.346-.597.786-.638 1.328h3.78v-.002zM111.763 14.231a2.15 2.15 0 0 0-.675-.58 1.86 1.86 0 0 0-.936-.246c-.297 0-.57.064-.814.192-.245.127-.369.338-.369.636 0 .299.135.507.407.628.27.123.669.246 1.19.374.277.064.557.149.838.253.282.107.538.246.769.421.231.176.416.393.56.652.145.26.216.575.216.946 0 .467-.085.862-.254 1.184-.17.324-.394.585-.675.786a2.79 2.79 0 0 1-.984.438c-.376.09-.76.135-1.16.135a4.456 4.456 0 0 1-1.676-.327 3.557 3.557 0 0 1-1.352-.93l1.213-1.177c.206.275.471.505.798.685.328.18.691.27 1.092.27.133 0 .268-.017.407-.048.138-.03.266-.083.385-.151a.79.79 0 0 0 .283-.277.79.79 0 0 0 .108-.429c0-.317-.14-.547-.421-.684-.282-.137-.705-.275-1.268-.414a5.696 5.696 0 0 1-.805-.247c-.261-.099-.495-.232-.7-.397a1.846 1.846 0 0 1-.493-.613c-.123-.244-.185-.547-.185-.907 0-.424.085-.788.254-1.096.17-.308.391-.559.668-.755.277-.197.588-.341.938-.438a4.08 4.08 0 0 1 1.076-.142c.533 0 1.053.094 1.56.286.506.192.91.483 1.207.874l-1.2 1.096-.002.002zM114.422 14.167c0-.9.147-1.714.438-2.44a5.375 5.375 0 0 1 1.212-1.852 5.37 5.37 0 0 1 1.845-1.177 6.412 6.412 0 0 1 2.327-.414c.84 0 1.634.137 2.35.414a5.403 5.403 0 0 1 1.86 1.177c.523.51.93 1.127 1.223 1.851.293.727.437 1.54.437 2.441 0 .902-.146 1.683-.437 2.408a5.5 5.5 0 0 1-1.222 1.875 5.553 5.553 0 0 1-1.86 1.224 6.189 6.189 0 0 1-2.35.438 6.055 6.055 0 0 1-2.328-.438 5.45 5.45 0 0 1-1.845-1.224 5.628 5.628 0 0 1-1.212-1.875c-.291-.727-.438-1.53-.438-2.408zm2.106 0c0 .604.09 1.158.268 1.662.178.504.437.94.768 1.312.332.371.728.66 1.184.866.455.206.96.31 1.512.31s1.062-.104 1.522-.31a3.467 3.467 0 0 0 1.19-.866 3.94 3.94 0 0 0 .769-1.312 4.95 4.95 0 0 0 .27-1.662c0-.604-.09-1.122-.27-1.622-.18-.5-.433-.932-.76-1.304a3.5 3.5 0 0 0-1.183-.874 3.647 3.647 0 0 0-1.535-.317 3.6 3.6 0 0 0-1.53.317 3.607 3.607 0 0 0-1.175.874 3.973 3.973 0 0 0-.76 1.304c-.179.5-.268 1.04-.268 1.622h-.002zM128.206 12.195h1.753v1.224h.032c.164-.381.448-.717.853-1.008.405-.292.884-.438 1.437-.438.48 0 .895.087 1.238.262.344.176.625.405.845.692.22.286.382.615.483.984.103.372.153.753.153 1.144v4.768h-1.844v-4.228c0-.223-.016-.455-.046-.699a2.011 2.011 0 0 0-.2-.66 1.374 1.374 0 0 0-.423-.486c-.178-.127-.416-.191-.714-.191-.297 0-.551.061-.769.182-.215.123-.39.28-.53.469-.138.191-.245.41-.316.66-.071.249-.108.5-.108.755v4.198h-1.844v-7.63.002z"/>
        </g>
    </g>
</svg>
